<svg width="25" height="17" viewBox="0 0 25 17" fill="none" xmlns="http://www.w3.org/2000/svg">
<path d="M10.0897 7.59852C10.0897 7.59852 12.4577 7.40995 12.4577 4.43219C12.4577 1.45443 10.5218 0 8.07098 0H0.0020752V16.6462H8.07098C8.07098 16.6462 12.9954 16.8125 12.9954 11.7331C12.9954 11.7331 13.2105 7.6017 10.0917 7.6017L10.0897 7.59852ZM3.55504 2.95868H8.06901C8.06901 2.95868 9.16618 2.95869 9.16618 4.69068C9.16618 6.42268 8.51992 6.67267 7.78485 6.67267H3.55109L3.55504 2.95868ZM7.85984 13.6886H3.55504V9.23941H8.06901C8.06901 9.23941 9.70193 9.21611 9.70193 11.5254C9.70193 13.4502 8.50709 13.6674 7.85984 13.6886Z" fill="black"/>
<path d="M22.6232 0.980957H16.2256V3.03075H22.6232V0.980957Z" fill="black"/>
<path d="M19.5615 4.23535C13.6001 4.23535 13.6051 10.6305 13.6051 10.6305C13.6051 10.6305 13.1956 16.9949 19.5615 16.9949C19.5615 16.9949 24.8678 17.319 24.8678 12.5669H22.1397C22.1397 12.5669 22.2294 14.3572 19.6533 14.3572C19.6533 14.3572 16.9242 14.5531 16.9242 11.461H24.9576C24.9576 11.461 25.8367 4.23535 19.5615 4.23535ZM21.9867 9.23959H16.8936C16.8936 9.23959 17.2271 6.67285 19.6227 6.67285C22.0183 6.67285 21.9907 9.23959 21.9907 9.23959H21.9867Z" fill="black"/>
</svg>
