<svg width="9" height="17" viewBox="0 0 9 17" fill="none" xmlns="http://www.w3.org/2000/svg">
<g clip-path="url(#clip0_225_274)">
<path d="M2.50598 9.59597H0.439514C0.105073 9.59597 0.000671387 9.46797 0.000671387 9.14883V6.5724C0.000671387 6.23165 0.125737 6.12526 0.439514 6.12526H2.50598V4.25305C2.50598 3.402 2.65227 2.59362 3.06991 1.84895C3.50822 1.08267 4.13523 0.574588 4.92864 0.274282C5.44428 0.0862177 5.98848 -0.00756817 6.53614 -0.00275328H8.58248C8.87504 -0.00275328 9.00013 0.125233 9.00013 0.422769V2.84794C9.00013 3.14603 8.87504 3.27402 8.58248 3.27402C8.01909 3.27402 7.45517 3.27402 6.89125 3.29508C6.32732 3.29508 6.03529 3.57211 6.03529 4.16718C6.01409 4.80547 6.03529 5.4227 6.03529 6.0826H8.45741C8.79131 6.0826 8.91693 6.21004 8.91693 6.55024V9.12501C8.91693 9.46521 8.81252 9.57158 8.45741 9.57158H6.03529V16.508C6.03529 16.8693 5.93088 16.9972 5.55456 16.9972H2.94429C2.6316 16.9972 2.50598 16.8693 2.50598 16.5501V9.5932V9.59597Z" fill="black"/>
</g>
<defs>
<clipPath id="clip0_225_274">
<rect width="9" height="17" fill="white"/>
</clipPath>
</defs>
</svg>
