<svg width="17" height="17" viewBox="0 0 17 17" fill="none" xmlns="http://www.w3.org/2000/svg">
<g clip-path="url(#clip0_226_284)">
<path d="M11.6879 0H5.31206C3.90306 0.000225821 2.55182 0.560037 1.5555 1.55636C0.559183 2.55267 -0.000628672 3.90391 -0.000854492 5.31292V11.6879C-0.000628672 13.0969 0.559183 14.4482 1.5555 15.4445C2.55182 16.4408 3.90306 17.0006 5.31206 17.0008H11.6871C13.0961 17.0008 14.4475 16.4411 15.4439 15.4447C16.4402 14.4484 17 13.097 17 11.6879V5.31718C17.0004 4.61922 16.8634 3.92801 16.5966 3.28303C16.3299 2.63805 15.9387 2.05193 15.4454 1.55816C14.9521 1.0644 14.3664 0.672643 13.7217 0.405287C13.077 0.137931 12.3859 0.000223597 11.6879 0ZM15.4065 11.6879C15.4056 12.6739 15.0135 13.6193 14.3164 14.3166C13.6192 15.0139 12.6739 15.4062 11.6879 15.4073H5.31206C4.32604 15.4062 3.38075 15.0139 2.68361 14.3166C1.98647 13.6193 1.59443 12.6739 1.59353 11.6879V5.31718C1.59443 4.33124 1.98649 3.38594 2.68365 2.68877C3.38082 1.99161 4.32612 1.59955 5.31206 1.59865H11.6871C12.673 1.59955 13.6183 1.99161 14.3155 2.68877C15.0126 3.38594 15.4047 4.33124 15.4056 5.31718L15.4065 11.6879Z" fill="black"/>
<path d="M8.50084 4.25098C7.3736 4.25098 6.29251 4.69871 5.49535 5.49572C4.69818 6.29272 4.25023 7.37372 4.25 8.50097C4.25023 9.62821 4.69818 10.7092 5.49535 11.5062C6.29251 12.3032 7.3736 12.751 8.50084 12.751C9.62794 12.7508 10.7088 12.3029 11.5058 11.5059C12.3028 10.7089 12.7506 9.62807 12.7509 8.50097C12.7506 7.37387 12.3028 6.29301 11.5058 5.49603C10.7088 4.69905 9.62794 4.2512 8.50084 4.25098ZM8.50084 11.1566C7.79666 11.1559 7.12151 10.8759 6.6235 10.3781C6.12549 9.88023 5.84529 9.20515 5.84439 8.50097C5.84506 7.79664 6.12515 7.12137 6.62319 6.62333C7.12122 6.12529 7.79651 5.84519 8.50084 5.84451C9.2051 5.84519 9.88031 6.12531 10.3782 6.62337C10.8761 7.12143 11.156 7.79672 11.1565 8.50097C11.1556 9.205 10.8755 9.87996 10.3776 10.3778C9.87982 10.8756 9.20488 11.1557 8.50084 11.1566Z" fill="black"/>
<path d="M13.0694 4.498C13.3822 4.498 13.6358 4.24442 13.6358 3.93162C13.6358 3.61881 13.3822 3.36523 13.0694 3.36523C12.7566 3.36523 12.503 3.61881 12.503 3.93162C12.503 4.24442 12.7566 4.498 13.0694 4.498Z" fill="black"/>
</g>
<defs>
<clipPath id="clip0_226_284">
<rect width="17" height="17" fill="white"/>
</clipPath>
</defs>
</svg>
