<svg width="130" height="91" viewBox="0 0 130 91" fill="none" xmlns="http://www.w3.org/2000/svg">
<g  clip-path="url(#clip0_443_3070)">
<path d="M66.3803 30.8157C66.3338 26.7357 67.1375 22.6912 68.7396 18.9419C70.3418 15.1927 72.707 11.8216 75.6831 9.04567C78.4422 6.15327 81.7611 3.85869 85.4356 2.30306C89.1101 0.747421 93.0625 -0.0363638 97.0497 -6.0144e-05C101.656 -0.136896 106.23 0.81825 110.401 2.7879C114.572 4.75754 118.222 7.68636 121.057 11.3373C127.003 18.5374 130.12 27.6758 129.82 37.0271C129.82 55.7216 114.055 73.813 82.5252 91.3014L78.0238 84.1855C88.7071 75.3207 94.1088 68.2048 94.1088 62.717C94.1088 61.0285 91.8281 59.34 87.3267 57.6514C82.35 56.1289 77.6777 53.7407 73.5225 50.5957C70.9222 48.055 68.9287 44.9553 67.6917 41.5294C66.4547 38.1036 66.0064 34.4406 66.3803 30.8157ZM-0.000168556 30.8157C-0.153344 22.7205 2.88922 14.8936 8.46246 9.04567C11.2671 6.13037 14.6367 3.82362 18.3633 2.26781C22.0898 0.712006 26.0941 -0.0598379 30.1291 -6.0144e-05C34.7342 -0.127303 39.3049 0.832039 43.4742 2.80096C47.6435 4.76989 51.2953 7.69358 54.1365 11.3373C60.2042 18.4825 63.4128 27.6384 63.1393 37.0271C63.1393 55.7216 47.3744 73.813 15.8447 91.3014L10.8032 84.1855C21.8466 75.3207 27.4283 68.2048 27.4283 62.717C27.4283 61.0285 24.9675 59.34 20.106 57.6514C15.227 56.115 10.6557 53.7265 6.60185 50.5957C4.16977 47.9567 2.32352 44.8286 1.18535 41.4186C0.0471754 38.0086 -0.356929 34.3945 -0.000168556 30.8157V30.8157Z" fill="#ffffff"/>
</g>
<defs>
<clipPath id="clip0_443_3070">
<rect width="130" height="91" fill="white"/>
</clipPath>
</defs>
</svg>
