<svg width="90" height="14" viewBox="0 0 90 14" fill="none" xmlns="http://www.w3.org/2000/svg">
<path d="M8.00936 2.04754L9.03602 4.10087C9.17602 4.38671 9.54936 4.66087 9.86436 4.71337L11.7252 5.02254C12.9152 5.22087 13.1952 6.08421 12.3377 6.93587L10.891 8.38254C10.646 8.62754 10.5119 9.10004 10.5877 9.43837L11.0019 11.2292C11.3285 12.6467 10.576 13.195 9.32186 12.4542L7.57769 11.4217C7.26269 11.235 6.74352 11.235 6.42269 11.4217L4.67852 12.4542C3.43019 13.195 2.67186 12.6409 2.99852 11.2292L3.41269 9.43837C3.48852 9.10004 3.35436 8.62754 3.10936 8.38254L1.66269 6.93587C0.811024 6.08421 1.08519 5.22087 2.27519 5.02254L4.13602 4.71337C4.44519 4.66087 4.81852 4.38671 4.95852 4.10087L5.98519 2.04754C6.54519 0.933372 7.45519 0.933372 8.00936 2.04754Z" fill="#ECA53B"/>
<path d="M27.0094 2.04754L28.036 4.10087C28.176 4.38671 28.5494 4.66087 28.8644 4.71337L30.7252 5.02254C31.9152 5.22087 32.1952 6.08421 31.3377 6.93587L29.891 8.38254C29.646 8.62754 29.5119 9.10004 29.5877 9.43837L30.0019 11.2292C30.3285 12.6467 29.576 13.195 28.3219 12.4542L26.5777 11.4217C26.2627 11.235 25.7435 11.235 25.4227 11.4217L23.6785 12.4542C22.4302 13.195 21.6719 12.6409 21.9985 11.2292L22.4127 9.43837C22.4885 9.10004 22.3544 8.62754 22.1094 8.38254L20.6627 6.93587C19.811 6.08421 20.0852 5.22087 21.2752 5.02254L23.136 4.71337C23.4452 4.66087 23.8185 4.38671 23.9585 4.10087L24.9852 2.04754C25.5452 0.933372 26.4552 0.933372 27.0094 2.04754Z" fill="#ECA53B"/>
<path d="M46.0094 2.04754L47.036 4.10087C47.176 4.38671 47.5494 4.66087 47.8644 4.71337L49.7252 5.02254C50.9152 5.22087 51.1952 6.08421 50.3377 6.93587L48.891 8.38254C48.646 8.62754 48.5119 9.10004 48.5877 9.43837L49.0019 11.2292C49.3285 12.6467 48.576 13.195 47.3219 12.4542L45.5777 11.4217C45.2627 11.235 44.7435 11.235 44.4227 11.4217L42.6785 12.4542C41.4302 13.195 40.6719 12.6409 40.9985 11.2292L41.4127 9.43837C41.4885 9.10004 41.3544 8.62754 41.1094 8.38254L39.6627 6.93587C38.811 6.08421 39.0852 5.22087 40.2752 5.02254L42.136 4.71337C42.4452 4.66087 42.8185 4.38671 42.9585 4.10087L43.9852 2.04754C44.5452 0.933372 45.4552 0.933372 46.0094 2.04754Z" fill="#ECA53B"/>
<path d="M65.0094 2.04754L66.036 4.10087C66.176 4.38671 66.5494 4.66087 66.8644 4.71337L68.7252 5.02254C69.9152 5.22087 70.1952 6.08421 69.3377 6.93587L67.891 8.38254C67.646 8.62754 67.5119 9.10004 67.5877 9.43837L68.0019 11.2292C68.3285 12.6467 67.576 13.195 66.3219 12.4542L64.5777 11.4217C64.2627 11.235 63.7435 11.235 63.4227 11.4217L61.6785 12.4542C60.4302 13.195 59.6719 12.6409 59.9985 11.2292L60.4127 9.43837C60.4885 9.10004 60.3544 8.62754 60.1094 8.38254L58.6627 6.93587C57.811 6.08421 58.0852 5.22087 59.2752 5.02254L61.136 4.71337C61.4452 4.66087 61.8185 4.38671 61.9585 4.10087L62.9852 2.04754C63.5452 0.933372 64.4552 0.933372 65.0094 2.04754Z" fill="#ECA53B"/>
<path d="M84.0094 2.04754L85.036 4.10087C85.176 4.38671 85.5494 4.66087 85.8644 4.71337L87.7252 5.02254C88.9152 5.22087 89.1952 6.08421 88.3377 6.93587L86.891 8.38254C86.646 8.62754 86.5119 9.10004 86.5877 9.43837L87.0019 11.2292C87.3285 12.6467 86.576 13.195 85.3219 12.4542L83.5777 11.4217C83.2627 11.235 82.7435 11.235 82.4227 11.4217L80.6785 12.4542C79.4302 13.195 78.6719 12.6409 78.9985 11.2292L79.4127 9.43837C79.4885 9.10004 79.3544 8.62754 79.1094 8.38254L77.6627 6.93587C76.811 6.08421 77.0852 5.22087 78.2752 5.02254L80.136 4.71337C80.4452 4.66087 80.8185 4.38671 80.9585 4.10087L81.9852 2.04754C82.5452 0.933372 83.4552 0.933372 84.0094 2.04754Z" fill="#ECA53B"/>
</svg>
