<svg width="20" height="17" viewBox="0 0 20 17" fill="none" xmlns="http://www.w3.org/2000/svg">
<g clip-path="url(#clip0_226_282)">
<path d="M20 2.01265C19.2478 2.35586 18.4522 2.58399 17.6378 2.69004C18.4961 2.15717 19.1379 1.31352 19.4415 0.31884C18.638 0.818736 17.7587 1.17119 16.8416 1.36098C16.4575 0.93257 15.9936 0.591074 15.4784 0.357581C14.9633 0.124088 14.4079 0.00355234 13.8465 0.00341797C13.3081 0.00360036 12.775 0.114744 12.2777 0.330493C11.7804 0.546243 11.3286 0.862359 10.9481 1.26082C10.5676 1.65927 10.2658 2.13226 10.0601 2.65274C9.85434 3.17322 9.74863 3.73101 9.74898 4.29424C9.74563 4.623 9.77748 4.9511 9.84394 5.27244C8.21282 5.18857 6.61698 4.74559 5.16068 3.97246C3.70438 3.19932 2.42039 2.11342 1.39261 0.785715C1.02597 1.44378 0.832358 2.19166 0.831453 2.95335C0.832052 3.65825 0.998475 4.35216 1.31605 4.97385C1.63362 5.59554 2.09258 6.12591 2.65242 6.51816C2.00342 6.50051 1.36807 6.31938 0.800243 5.99013V6.03737C0.801138 7.02783 1.12827 7.98771 1.72655 8.75534C2.32483 9.52297 3.15769 10.0515 4.08487 10.2518C3.73421 10.3479 3.37285 10.3947 3.01037 10.3907C2.74983 10.3958 2.48954 10.3713 2.23403 10.3178C2.49913 11.1689 3.00987 11.9132 3.69596 12.4482C4.38206 12.9832 5.20978 13.2826 6.06522 13.3052C4.61379 14.4924 2.82393 15.1365 0.981541 15.1345C0.653507 15.137 0.325656 15.1175 0 15.0762C1.8751 16.3398 4.0599 17.0082 6.29035 17.0006C13.8352 17.0006 17.9599 10.4623 17.9599 4.79446C17.9599 4.60479 17.9539 4.42207 17.9453 4.23865C18.754 3.63365 19.4503 2.87928 20 2.01265Z" fill="black"/>
</g>
<defs>
<clipPath id="clip0_226_282">
<rect width="20" height="17" fill="white"/>
</clipPath>
</defs>
</svg>
